<svg xmlns="http://www.w3.org/2000/svg" viewBox="0 0 256 256">
  <g fill="#ffffff">
    <path d="M50.218 50.218A110 110 0 0 1 205.782 50.218L187.088 117.581A60 60 0 0 0 117.581 68.912Z"/>
    <path d="M205.782 50.218A110 110 0 0 1 205.782 205.782L138.419 187.088A60 60 0 0 0 187.088 117.581Z"/>
    <path d="M205.782 205.782A110 110 0 0 1 50.218 205.782L68.912 138.419A60 60 0 0 0 138.419 187.088Z"/>
    <path d="M50.218 205.782A110 110 0 0 1 50.218 50.218L117.581 68.912A60 60 0 0 0 68.912 138.419Z"/>
  </g>
  <circle cx="128" cy="128" r="45" fill="#000000"/>
</svg>
